<svg xmlns="http://www.w3.org/2000/svg" viewBox="0 0 420 780">
    <defs>
        <pattern id="wood" patternUnits="userSpaceOnUse" width="100" height="100">
            <rect width="100" height="100" fill="#3E2723"/>
            <path d="M0 10 Q 50 20 100 10 M0 30 Q 50 40 100 30 M0 50 Q 50 60 100 50 M0 70 Q 50 80 100 70 M0 90 Q 50 100 100 90" stroke="#2E1B15" stroke-width="2" fill="none" opacity="0.6"/>
        </pattern>
        <pattern id="felt" patternUnits="userSpaceOnUse" width="40" height="40">
            <rect width="40" height="40" fill="#2563EB"/>
            <circle cx="10" cy="10" r="1" fill="#1D4ED8" opacity="0.5"/>
            <circle cx="30" cy="20" r="1.5" fill="#3B82F6" opacity="0.3"/>
            <circle cx="20" cy="35" r="1" fill="#1D4ED8" opacity="0.5"/>
        </pattern>
        <linearGradient id="metallic" x1="0%" y1="0%" x2="100%" y2="100%">
            <stop offset="0%" stop-color="#9E9E9E"/>
            <stop offset="50%" stop-color="#F5F5F5"/>
            <stop offset="100%" stop-color="#424242"/>
        </linearGradient>
    </defs>
    <rect x="14" y="74" width="392" height="672" rx="14" fill="#2E1B15"/>
    <rect x="14" y="74" width="392" height="672" rx="14" fill="url(#wood)"/>
    <rect x="22" y="82" width="376" height="656" rx="8" fill="#5D4037" opacity="0.8"/>
    <rect x="40" y="100" width="340" height="620" fill="url(#felt)"/>
    <rect x="40" y="100" width="340" height="620" fill="none" stroke="#0B1120" stroke-width="12" opacity="0.6"/>
    <rect x="40" y="712" width="340" height="8" fill="#1E3A8A" opacity="0.4"/>
    <rect x="40" y="100" width="8" height="620" fill="#1E3A8A" opacity="0.4"/>
    <rect x="372" y="100" width="8" height="620" fill="#1E3A8A" opacity="0.4"/>

    <polygon points="78,100 342,100 328,114 92,114" fill="#1D4ED8"/>
    <polygon points="78,100 342,100 335,107 85,107" fill="#2563EB"/>
    <polygon points="78,720 342,720 328,706 92,706" fill="#1D4ED8"/>
    <polygon points="78,720 342,720 335,713 85,713" fill="#2563EB"/>
    <polygon points="40,128 40,391 54,377 54,142" fill="#1D4ED8"/>
    <polygon points="40,128 40,391 47,384 47,135" fill="#2563EB"/>
    <polygon points="40,429 40,692 54,678 54,443" fill="#1D4ED8"/>
    <polygon points="40,429 40,692 47,685 47,436" fill="#2563EB"/>
    <polygon points="380,128 380,391 366,377 366,142" fill="#1D4ED8"/>
    <polygon points="380,128 380,391 373,384 373,135" fill="#2563EB"/>
    <polygon points="380,429 380,692 366,678 366,443" fill="#1D4ED8"/>
    <polygon points="380,429 380,692 373,685 373,436" fill="#2563EB"/>

    <circle cx="40" cy="100" r="19" fill="#000000" opacity="0.9"/>
    <circle cx="40" cy="100" r="17" fill="#0A0A0A"/>
    <circle cx="210" cy="96" r="19" fill="#000000" opacity="0.9"/>
    <circle cx="210" cy="96" r="17" fill="#0A0A0A"/>
    <circle cx="380" cy="100" r="19" fill="#000000" opacity="0.9"/>
    <circle cx="380" cy="100" r="17" fill="#0A0A0A"/>
    <circle cx="40" cy="720" r="19" fill="#000000" opacity="0.9"/>
    <circle cx="40" cy="720" r="17" fill="#0A0A0A"/>
    <circle cx="210" cy="724" r="19" fill="#000000" opacity="0.9"/>
    <circle cx="210" cy="724" r="17" fill="#0A0A0A"/>
    <circle cx="380" cy="720" r="19" fill="#000000" opacity="0.9"/>
    <circle cx="380" cy="720" r="17" fill="#0A0A0A"/>

    <path d="M 14 74 L 50 74 Q 40 100 14 110 Z" fill="url(#metallic)"/>
    <path d="M 406 74 L 370 74 Q 380 100 406 110 Z" fill="url(#metallic)"/>
    <path d="M 14 746 L 50 746 Q 40 720 14 710 Z" fill="url(#metallic)"/>
    <path d="M 406 746 L 370 746 Q 380 720 406 710 Z" fill="url(#metallic)"/>
    <path d="M 190 74 L 230 74 Q 210 90 190 74 Z" fill="url(#metallic)"/>
    <path d="M 190 746 L 230 746 Q 210 730 190 746 Z" fill="url(#metallic)"/>

    <line x1="40" y1="550" x2="380" y2="550" stroke="#FFFFFF" stroke-opacity="0.15" stroke-width="2"/>

    <circle cx="125" cy="82" r="4" fill="#DAAA5E"/>
    <circle cx="124" cy="81" r="1.5" fill="#F5D590" opacity="0.8"/>
    <circle cx="210" cy="82" r="4" fill="#DAAA5E"/>
    <circle cx="209" cy="81" r="1.5" fill="#F5D590" opacity="0.8"/>
    <circle cx="295" cy="82" r="4" fill="#DAAA5E"/>
    <circle cx="294" cy="81" r="1.5" fill="#F5D590" opacity="0.8"/>

    <circle cx="125" cy="738" r="4" fill="#DAAA5E"/>
    <circle cx="124" cy="737" r="1.5" fill="#F5D590" opacity="0.8"/>
    <circle cx="210" cy="738" r="4" fill="#DAAA5E"/>
    <circle cx="209" cy="737" r="1.5" fill="#F5D590" opacity="0.8"/>
    <circle cx="295" cy="738" r="4" fill="#DAAA5E"/>
    <circle cx="294" cy="737" r="1.5" fill="#F5D590" opacity="0.8"/>

    <circle cx="22" cy="203.3" r="4" fill="#DAAA5E"/>
    <circle cx="21" cy="202.3" r="1.5" fill="#F5D590" opacity="0.8"/>
    <circle cx="22" cy="306.6" r="4" fill="#DAAA5E"/>
    <circle cx="21" cy="305.6" r="1.5" fill="#F5D590" opacity="0.8"/>
    <circle cx="22" cy="410" r="4" fill="#DAAA5E"/>
    <circle cx="21" cy="409" r="1.5" fill="#F5D590" opacity="0.8"/>
    <circle cx="22" cy="513.3" r="4" fill="#DAAA5E"/>
    <circle cx="21" cy="512.3" r="1.5" fill="#F5D590" opacity="0.8"/>
    <circle cx="22" cy="616.6" r="4" fill="#DAAA5E"/>
    <circle cx="21" cy="615.6" r="1.5" fill="#F5D590" opacity="0.8"/>

    <circle cx="398" cy="203.3" r="4" fill="#DAAA5E"/>
    <circle cx="397" cy="202.3" r="1.5" fill="#F5D590" opacity="0.8"/>
    <circle cx="398" cy="306.6" r="4" fill="#DAAA5E"/>
    <circle cx="397" cy="305.6" r="1.5" fill="#F5D590" opacity="0.8"/>
    <circle cx="398" cy="410" r="4" fill="#DAAA5E"/>
    <circle cx="397" cy="409" r="1.5" fill="#F5D590" opacity="0.8"/>
    <circle cx="398" cy="513.3" r="4" fill="#DAAA5E"/>
    <circle cx="397" cy="512.3" r="1.5" fill="#F5D590" opacity="0.8"/>
    <circle cx="398" cy="616.6" r="4" fill="#DAAA5E"/>
    <circle cx="397" cy="615.6" r="1.5" fill="#F5D590" opacity="0.8"/>
</svg>